<?xml version="1.0" encoding="UTF-8" standalone="no"?><!DOCTYPE svg PUBLIC "-//W3C//DTD SVG 1.1//EN" "http://www.w3.org/Graphics/SVG/1.1/DTD/svg11.dtd"><svg width="100%" height="100%" viewBox="0 0 977 204" version="1.1" xmlns="http://www.w3.org/2000/svg" xmlns:xlink="http://www.w3.org/1999/xlink" xml:space="preserve" xmlns:serif="http://www.serif.com/" style="fill-rule:evenodd;clip-rule:evenodd;stroke-linejoin:round;stroke-miterlimit:1.41421;"><g id="Logo"><g transform="matrix(0.862589,0,0,0.862589,-349.905,-323.265)"><text x="641.932px" y="583.974px" style="font-family:'LucidaGrande-Bold', 'Lucida Grande', sans-serif;font-weight:600;font-size:113.438px;fill:#f37027;stroke:#f37027;stroke-width:2.32px;">O<tspan x="738.722px 817.288px 887.159px 965.061px 1033.6px 1109.45px 1185.31px " y="583.974px 583.974px 583.974px 583.974px 583.974px 583.974px 583.974px ">penFood</tspan></text><text x="1263.87px" y="583.974px" style="font-family:'LucidaGrande-Bold', 'Lucida Grande', sans-serif;font-weight:600;font-size:113.438px;fill:#7ec242;stroke:#7ec242;stroke-width:2.32px;">B<tspan x="1338.73px 1408.82px 1476.37px " y="583.974px 583.974px 583.974px ">ase</tspan></text></g><path id="Leaf" d="M80.076,81.858c-8.631,0.005 -31.397,-2.951 -31.397,-2.951c0,0 -5.643,0.214 -17.805,-16.828c-12.161,-17.041 -15.107,-35.194 -17.677,-42.34c-2.57,-7.146 -3.371,-9.345 -5.122,-12.952c-1.557,-3.209 -3.054,-6.185 -3.054,-6.185l5.732,2.473c0,0 9.114,3.474 12.456,4.221c3.342,0.747 17.309,5.815 31.043,14.031c13.734,8.217 18.965,15.312 22.881,20.625c3.916,5.314 7.636,12.319 8.963,17.535c1.328,5.216 2.097,9.455 2.097,9.455c0,0 0.985,-8.31 1.563,-10.481c0.579,-2.17 1.791,-8.624 7.392,-16.782c4.973,-7.246 9.85,-10.21 14.206,-12.802c4.356,-2.592 8.939,-5.532 21.768,-8.149c12.667,-2.585 27.906,-1.628 41.663,-0.431c13.757,1.197 27.843,2.236 31.49,2.549c1.553,0.134 1.357,0.43 1.357,0.43c0,0 -2.362,7.191 -3.588,9.525c-1.226,2.335 -3.806,9.593 -10.239,17.119c-6.433,7.527 -16.216,11.896 -20.903,14.01c-9.998,4.512 -28.587,9.776 -34.771,11.458c-6.184,1.683 -10.375,1.811 -10.375,1.811l-34.134,3.383c2.082,-13.554 12.671,-22.826 12.671,-22.826c8.805,-7.582 16.637,-12.689 28.724,-16.526c14.581,-5.606 41.005,-5.342 41.005,-5.342c0,0 -27.907,-0.539 -41.463,4.388c-10.751,3.414 -17.301,6.95 -24.874,12.37c-7.881,5.64 -11.332,10.783 -13.993,15.108c-2.621,4.259 -4.143,9.871 -4.627,11.947l-0.257,1.115l-3.979,0.439c-2.88,-5.852 -9.417,-15.716 -11.666,-18.758c-3.087,-4.175 -8.023,-10.568 -10.301,-12.927c-13.198,-13.664 -37.313,-30.156 -37.313,-30.156l13.623,10.443c0,0 15.527,13.866 21.561,20.43c4.226,4.597 6.994,7.291 14.783,19.863c3.096,5.419 5.133,9.603 5.826,11.404l-3.266,0.304Z" style="fill:#7ec242;"/><path id="Body" d="M88.649,198.561c-7.511,3.116 -15.746,4.837 -24.382,4.837c-35.126,0 -63.643,-28.47 -63.643,-63.537c0,-35.066 28.517,-63.536 63.643,-63.536c8.636,0 16.871,1.72 24.382,4.837c-23.041,9.559 -39.261,32.253 -39.261,58.699c0,26.446 16.22,49.14 39.261,58.7Zm0,-117.399c7.511,-3.117 15.747,-4.837 24.382,-4.837c35.126,0 63.644,28.47 63.644,63.536c0,35.067 -28.518,63.537 -63.644,63.537c-8.635,0 -16.871,-1.721 -24.382,-4.837c23.042,-9.56 39.262,-32.254 39.262,-58.7c0,-26.446 -16.22,-49.14 -39.262,-58.699Z" style="fill:#f37027;"/></g></svg>